2.5Hzlow3min_grf.mot
version=1
nRows=15
nColumns 19
inDegrees=yes
endheader
time	1_ground_force_vx	1_ground_force_vy	1_ground_force_vz	1_ground_force_px	1_ground_force_py	1_ground_force_pz	1_ground_torque_x	1_ground_torque_y	1_ground_torque_z	2_ground_force_vx	2_ground_force_vy	2_ground_force_vz	2_ground_force_px	2_ground_force_py	2_ground_force_pz	2_ground_torque_x	2_ground_torque_y	2_ground_torque_z
            2.502500	          -35.438984	          622.654283	          -44.750305	           -0.197877	            0.005874	           -0.322359	            0.056126	           -0.986127	            0.070873	           21.563321	          564.573237	           84.645575	           -0.215597	            0.005806	           -0.725921	            0.131037	            3.430816	            0.514377
            2.503000	          -36.497401	          629.148559	          -45.866264	           -0.197668	            0.005873	           -0.322271	            0.062463	           -1.076754	            0.078498	           21.364369	          567.883867	           85.596043	           -0.215618	            0.005806	           -0.725953	            0.131801	            3.503377	            0.528057
            2.503500	          -36.730439	          636.363467	          -46.843606	           -0.197690	            0.005872	           -0.322030	            0.056528	           -0.979353	            0.072092	           21.349412	          572.116608	           86.362005	           -0.215691	            0.005806	           -0.725993	            0.132769	            3.557919	            0.537074
            2.504000	          -36.826339	          643.218596	          -48.006260	           -0.197794	            0.005873	           -0.322111	            0.047071	           -0.822156	            0.061361	           21.479593	          575.061313	           86.982516	           -0.215619	            0.005806	           -0.725890	            0.133553	            3.575528	            0.540827
            2.504500	          -37.058081	          648.989609	          -48.577079	           -0.197675	            0.005873	           -0.322145	            0.039946	           -0.699566	            0.052363	           21.790881	          579.845378	           88.407304	           -0.215702	            0.005806	           -0.726130	            0.134931	            3.590440	            0.547424
            2.505000	          -37.610912	          656.382785	          -49.094293	           -0.197812	            0.005872	           -0.321986	            0.047868	           -0.835390	            0.062483	           21.594567	          582.419613	           89.308224	           -0.215614	            0.005806	           -0.725836	            0.132344	            3.569415	            0.547334
            2.505500	          -37.705854	          663.596736	          -49.842702	           -0.198029	            0.005871	           -0.321801	            0.059371	           -1.044895	            0.078482	           21.387723	          587.939385	           90.454290	           -0.215910	            0.005806	           -0.726212	            0.130977	            3.600510	            0.553937
            2.506000	          -38.535120	          670.451649	          -50.957675	           -0.198153	            0.005872	           -0.321878	            0.069046	           -1.201289	            0.091304	           20.952485	          591.801865	           91.312973	           -0.215856	            0.005806	           -0.726065	            0.126938	            3.585367	            0.553210
            2.506500	          -38.447241	          676.945753	          -51.984766	           -0.198184	            0.005871	           -0.321690	            0.070527	           -1.241785	            0.095360	           20.704089	          595.848510	           92.406867	           -0.215751	            0.005806	           -0.726004	            0.128978	            3.711893	            0.575657
            2.507000	          -38.359810	          683.440643	          -53.195272	           -0.198253	            0.005871	           -0.321832	            0.064090	           -1.141866	            0.088877	           20.264198	          601.000158	           93.270150	           -0.215926	            0.005805	           -0.726051	            0.129521	            3.841355	            0.596146
            2.507500	          -38.134518	          689.934970	          -54.268557	           -0.198197	            0.005871	           -0.321721	            0.054634	           -0.988448	            0.077749	           20.666220	          606.523513	           93.993611	           -0.215969	            0.005805	           -0.726071	            0.129295	            3.794622	            0.588057
            2.508000	          -38.001002	          698.231482	          -55.242172	           -0.198351	            0.005870	           -0.321484	            0.048707	           -0.894951	            0.070806	           20.602417	          611.308568	           94.761564	           -0.215954	            0.005806	           -0.726361	            0.129375	            3.838783	            0.595066
            2.508500	          -37.637428	          705.625622	          -55.945085	           -0.198579	            0.005869	           -0.321301	            0.056090	           -1.051565	            0.083373	           21.008630	          615.725527	           95.950349	           -0.216104	            0.005805	           -0.726038	            0.126451	            3.706055	            0.577526
            2.509000	          -37.319680	          711.037328	          -56.793959	           -0.198552	            0.005869	           -0.321342	            0.063590	           -1.211557	            0.096773	           20.943704	          620.877068	           97.188897	           -0.216075	            0.005805	           -0.726265	            0.127074	            3.767109	            0.589684
            2.509500	          -37.186072	          718.793196	          -57.769893	           -0.198515	            0.005869	           -0.321307	            0.069328	           -1.340088	            0.107704	           20.455116	          626.579859	           98.382676	           -0.216198	            0.005805	           -0.726200	            0.123267	            3.775899	            0.592874
